<svg xmlns="http://www.w3.org/2000/svg" xmlns:serif="http://www.serif.com/" fill-rule="evenodd" stroke-linejoin="round" stroke-miterlimit="1.414" clip-rule="evenodd" viewBox="0 0 32 32"><g serif:id="Income, Coin, Business"><rect width="32" height="32" fill="none"/><circle cx="124" cy="93" r="14" fill="#ffeb3b" transform="translate(-108 -77)"/><circle cx="124" cy="93" r="14" fill="#fbc02d" transform="matrix(.78589 0 0 .78589 -81.45 -57.087)"/><path fill="#00c853" fill-rule="nonzero" d="M132.005,101.013L132.005,98.012C132.01,97.829 132.027,97.779 132.061,97.681C132.185,97.329 132.518,97.06 132.894,97.018C133.002,97.005 133.027,97.012 133.062,97.013C133.244,97.028 133.293,97.048 133.388,97.088C133.716,97.223 133.96,97.544 134,97.9C134.005,97.949 134.005,97.962 134.006,98.012L134.006,101.013L137.007,101.013C137.026,101.014 137.045,101.014 137.064,101.015C137.293,101.034 137.366,101.069 137.491,101.138C138.068,101.457 138.173,102.413 137.586,102.83C137.418,102.949 137.213,103.008 137.007,103.014L134.006,103.014L134.006,106.016C133.985,106.782 132.973,107.328 132.339,106.762C132.157,106.599 132.039,106.369 132.011,106.128C132.006,106.078 132.007,106.065 132.005,106.016L132.005,103.014L129.004,103.014C128.774,103.008 128.699,102.977 128.57,102.915C127.956,102.619 127.826,101.622 128.425,101.198C128.593,101.079 128.798,101.019 129.004,101.013L132.005,101.013Z" transform="translate(-107.978 -76.996)"/><path fill="#f57f17" d="M124.037,82.004C128.208,82.024 132.259,84.592 134.019,88.451C134.983,90.563 135.244,92.985 134.777,95.253C134.777,95.253 134.659,95.67 134.41,95.867C133.98,96.205 133.265,96.104 132.954,95.628C132.648,95.161 132.905,94.501 132.965,93.869C133.352,89.791 130.67,85.598 126.572,84.378C123.461,83.452 119.868,84.358 117.56,86.721C114.899,89.446 114.211,93.927 116.123,97.371C117.454,99.767 119.923,101.496 122.63,101.91C123.69,102.072 124.777,102.043 125.832,101.827L125.918,101.814C125.995,101.808 126.015,101.804 126.092,101.809C126.644,101.842 127.104,102.404 127.022,102.954C126.954,103.412 126.547,103.729 126.065,103.821C121.863,104.62 117.236,102.745 114.804,99.052C113.084,96.44 112.555,93.094 113.396,90.064C114.651,85.541 119.081,82.073 123.86,82.005C123.919,82.005 123.978,82.004 124.037,82.004Z" transform="translate(-108 -77)"/><path fill="#fff176" d="M123.001,87.901L123.001,87.007C123.008,86.797 123.027,86.762 123.059,86.672C123.18,86.329 123.501,86.066 123.865,86.016C123.996,85.998 124.027,86.007 124.07,86.009C124.534,86.056 124.93,86.416 124.993,86.87C125.001,86.931 125,86.946 125.002,87.007L125.002,87.899C126.31,88.145 127.516,88.883 127.902,90.203C127.967,90.424 128,90.654 128.003,90.885C128.003,90.885 127.988,91.203 127.867,91.411C127.563,91.934 126.734,92.06 126.29,91.61C125.844,91.157 126.219,90.442 125.098,90.003C125.067,89.991 125.034,89.979 125.002,89.968L125.002,92.106C126.255,92.348 127.409,93.049 127.847,94.241C128.128,95.004 128.001,95.896 127.543,96.572C126.98,97.403 126.04,97.93 125.002,98.133L125.002,99.012C124.993,99.265 124.959,99.34 124.89,99.473C124.581,100.068 123.605,100.186 123.184,99.589C123.092,99.459 123.032,99.307 123.01,99.149C123.002,99.088 123.003,99.073 123.001,99.012L123.001,98.126C122.449,98.015 121.917,97.811 121.447,97.511C120.67,97.017 120.055,96.203 120.003,95.247C119.967,94.582 120.594,93.967 121.259,94.145C121.688,94.26 121.974,94.684 122.001,95.143C122.034,95.621 122.537,95.872 122.904,96.016C122.936,96.028 122.968,96.04 123.001,96.051L123.001,93.915C121.703,93.665 120.483,92.918 120.101,91.612C119.85,90.754 120.114,89.786 120.721,89.115C121.317,88.456 122.143,88.068 123.001,87.901ZM125.002,94.172L125.002,96.063C125.263,95.97 125.5,95.837 125.697,95.662C125.87,95.508 126.022,95.301 126,95.067C125.954,94.556 125.405,94.31 125.002,94.172ZM123.001,89.957C122.739,90.05 122.501,90.183 122.306,90.357C122.135,90.51 121.983,90.714 122.002,90.948C122.044,91.457 122.591,91.708 123.001,91.848L123.001,89.957Z" transform="translate(-108 -77)"/></g></svg>